#Vertex
v -13093.785000 -50673.735000 15.106667
v -13091.625000 -50672.055000 14.390000
v -13096.119458 -50671.270933 14.673333
v -13096.119458 -50671.270933 12.040000
v -13091.625000 -50672.055000 12.340000
v -13095.740000 -50669.290000 11.530000
v -13088.746828 -50670.654895 12.145000
v -13089.945000 -50677.735000 12.220000
v -13091.865000 -50677.255000 12.645000
v -13094.185000 -50676.615000 15.036667
v -13093.145000 -50677.015000 15.095000
v -13091.865000 -50677.255000 14.560000
v -13096.505000 -50676.135000 14.595000
v -13097.600000 -50679.000000 14.130000
v -13093.580507 -50679.588450 14.240000
v -13086.620000 -50671.070000 12.080000
v -13087.060000 -50673.670000 12.080000
v -13089.130000 -50680.240000 12.580000
v -13093.580507 -50679.588450 12.460000
v -13093.145000 -50677.015000 12.990000
v -13088.746828 -50670.654895 2.080000
v -13095.740000 -50669.290000 2.080000
v -13096.119458 -50671.270933 2.080000
v -13097.600000 -50679.000000 2.080000
v -13093.580507 -50679.588450 2.080000
v -13089.130000 -50680.240000 2.080000
v -13087.060000 -50673.670000 2.080000
v -13086.620000 -50671.070000 2.080000

#Face Index
# Roof
f 1 2 3
f 4 5 6
f 6 5 7
f 5 8 7
f 5 9 8
f 10 11 1
f 11 12 1
f 1 12 2
f 1 3 13
f 13 10 1
f 3 14 13
f 10 15 11
f 15 10 14
f 10 13 14
f 16 7 17
f 17 8 18
f 8 19 18
f 9 19 8
f 20 19 9
f 7 8 17

# Wall
f 4 3 2 5
f 7 21 22 6
f 22 23 4 6
f 9 12 11 20
f 12 9 5 2
f 24 14 3 4 23
f 19 15 14 24 25
f 20 11 15 19
f 18 19 25 26
f 17 18 26 27
f 16 17 27 28
f 7 16 28 21

# Ground
f 24 23 22 21 28 27 26 25

