#Vertex
v -13096.119458 -50671.270933 0.000000
v -13093.785000 -50673.735000 0.000000
v -13091.625000 -50672.055000 0.000000
v -13091.865000 -50677.255000 0.500000
v -13089.945000 -50677.735000 0.500000
v -13088.746828 -50670.654895 0.500000
v -13095.740000 -50669.290000 0.500000
v -13096.119458 -50671.270933 0.500000
v -13091.625000 -50672.055000 0.500000
v -13093.785000 -50673.735000 1.000000
v -13094.185000 -50676.615000 1.000000
v -13093.145000 -50677.015000 1.000000
v -13091.865000 -50677.255000 1.000000
v -13091.625000 -50672.055000 1.000000
v -13096.119458 -50671.270933 1.500000
v -13096.505000 -50676.135000 1.500000
v -13094.185000 -50676.615000 1.500000
v -13093.785000 -50673.735000 1.500000
v -13094.185000 -50676.615000 2.000000
v -13096.505000 -50676.135000 2.000000
v -13096.119458 -50671.270933 2.000000
v -13097.600000 -50679.000000 2.000000
v -13093.580507 -50679.588450 2.000000
v -13093.145000 -50677.015000 2.000000
v -13093.580507 -50679.588450 2.500000
v -13089.130000 -50680.240000 2.500000
v -13087.060000 -50673.670000 2.500000
v -13086.620000 -50671.070000 2.500000
v -13088.746828 -50670.654895 2.500000
v -13089.945000 -50677.735000 2.500000
v -13091.865000 -50677.255000 2.500000
v -13093.145000 -50677.015000 2.500000

#Face Index
# Roof
f 1 2 3
f 4 5 6 7 8 9
f 10 11 12 13 14
f 15 16 17 18
f 19 20 21 22 23 24
f 25 26 27 28 29 30 31 32

