#Vertex
v -13096.119458 -50671.270933 0.000000
v -13093.785000 -50673.735000 0.000000
v -13091.625000 -50672.055000 0.000000
v -13095.740000 -50669.290000 0.000000
v -13088.746828 -50670.654895 0.000000
v -13089.945000 -50677.735000 0.000000
v -13091.865000 -50677.255000 0.000000
v -13094.185000 -50676.615000 0.000000
v -13093.145000 -50677.015000 0.000000
v -13096.505000 -50676.135000 0.000000
v -13097.600000 -50679.000000 0.000000
v -13093.580507 -50679.588450 0.000000
v -13087.060000 -50673.670000 0.000000
v -13086.620000 -50671.070000 0.000000
v -13089.130000 -50680.240000 0.000000

#Face Index
# Roof
f 1 2 3
f 4 1 3
f 4 3 5
f 5 3 6
f 6 3 7
f 2 8 9
f 2 9 7
f 2 7 3
f 1 10 2
f 2 10 8
f 1 11 10
f 9 8 12
f 12 8 11
f 11 8 10
f 5 13 14
f 15 13 6
f 15 6 12
f 12 6 7
f 12 7 9
f 5 13 6

